<svg xmlns="http://www.w3.org/2000/svg" width="31" height="33" fill="none" viewBox="0 0 31 33">
  <g filter="url(#filter0_d)">
    <path fill="#979797" d="M21.806 25H6.969C5.484 25 4 23.846 4 21.538V4.616c0-1.538.742-3.077 2.226-3.077 0 0 .37-1.538 1.113-1.538.742 0 1.113 1.538 1.113 1.538h1.854S10.678 0 11.42 0s1.113 1.538 1.113 1.538h1.855S14.758 0 15.5 0s1.113 1.538 1.113 1.538h1.855S18.838 0 19.58 0c.742 0 1.113 1.538 1.113 1.538h1.854S22.92 0 23.661 0s1.113 1.538 1.113 1.538h.371C27 1.538 27 3.18 27 4.615v14.616c0 1.538-.473 2.028-1.484 3.077l-1.484 1.538S22.92 25 21.806 25z"/>
  </g>
  <path fill="#F2F2F2" d="M4.742 22.2V6.154h21.516v14.23l-3.71 3.462H5.855c-1.113 0-1.113-1.646-1.113-1.646z"/>
  <path fill="#979797" d="M22.548 20.77v3.076s4.026-3.077 3.69-3.077h-3.69zM14.387 11.539c0-2.154.742-3.077 1.113-3.077s1.113.384 1.113 3.077c0 2.692-.742 6.153-1.113 6.153s-1.113-4-1.113-6.153zM15.5 19.23c-.89 0-1.113.77-1.113 1.155 0 .384.223 1.153 1.113 1.153s1.113-.769 1.113-1.153c0-.385-.223-1.154-1.113-1.154z"/>
  <path stroke="#979797" d="M14.387 11.539c0-2.154.742-3.077 1.113-3.077s1.113.384 1.113 3.077c0 2.692-.742 6.153-1.113 6.153s-1.113-4-1.113-6.153zM15.5 19.23c-.89 0-1.113.77-1.113 1.155 0 .384.223 1.153 1.113 1.153s1.113-.769 1.113-1.153c0-.385-.223-1.154-1.113-1.154z"/>
  <defs>
    <filter id="filter0_d" width="31" height="33" x="0" y="0" color-interpolation-filters="sRGB" filterUnits="userSpaceOnUse">
      <feFlood flood-opacity="0" result="BackgroundImageFix"/>
      <feColorMatrix in="SourceAlpha" values="0 0 0 0 0 0 0 0 0 0 0 0 0 0 0 0 0 0 127 0"/>
      <feOffset dy="4"/>
      <feGaussianBlur stdDeviation="2"/>
      <feColorMatrix values="0 0 0 0 0 0 0 0 0 0 0 0 0 0 0 0 0 0 0.25 0"/>
      <feBlend in2="BackgroundImageFix" result="effect1_dropShadow"/>
      <feBlend in="SourceGraphic" in2="effect1_dropShadow" result="shape"/>
    </filter>
  </defs>
</svg>
